<svg width="41" height="40" viewBox="0 0 41 40" fill="none" xmlns="http://www.w3.org/2000/svg">
<mask id="mask0" mask-type="alpha" maskUnits="userSpaceOnUse" x="0" y="0" width="41" height="40">
<path fill-rule="evenodd" clip-rule="evenodd" d="M0.00244141 0.00146484H40.2358V39.9912H0.00244141V0.00146484Z" fill="white"/>
</mask>
<g mask="url(#mask0)">
<path fill-rule="evenodd" clip-rule="evenodd" d="M40.2358 20.1179C40.2358 9.00707 31.2287 0 20.1179 0C9.00707 0 0 9.00707 0 20.1179C0 30.1593 7.35682 38.4821 16.9745 39.9914V25.9332H11.8664V20.1179H16.9745V15.6857C16.9745 10.6436 19.9779 7.85855 24.5733 7.85855C26.7743 7.85855 29.0766 8.25147 29.0766 8.25147V13.2024H26.5398C24.0407 13.2024 23.2613 14.7531 23.2613 16.3441V20.1179H28.8409L27.9489 25.9332H23.2613V39.9914C32.8789 38.4821 40.2358 30.1593 40.2358 20.1179Z" fill="#1878F2"/>
</g>
</svg>
